<svg xmlns="http://www.w3.org/2000/svg" version="1.1" xmlns:xlink="http://www.w3.org/1999/xlink" xmlns:svgjs="http://svgjs.dev/svgjs" viewBox="0 0 800 800"><defs><linearGradient x1="50%" y1="0%" x2="50%" y2="100%" id="ccchaos-grad"><stop stop-color="hsl(206, 75%, 49%)" stop-opacity="1" offset="0%"></stop><stop stop-color="hsl(331, 90%, 56%)" stop-opacity="1" offset="100%"></stop></linearGradient></defs><g stroke-width="2" stroke="url(#ccchaos-grad)" fill="none" stroke-linecap="round"><path d="M378.7 104.43C388.07 102.75 397.4 101.9 406.66 101.88 415.93 102.25 425.15 103.48 434.32 105.53 443.53 107.97 452.71 111.19 461.87 115.15 471.1 119.42 480.34 124.33 489.6 129.83 498.97 135.51 508.4 141.68 517.88 148.26 527.51 154.9 537.22 161.86 547 169.08 556.94 176.23 566.95 183.59 576.99 191.11 587.15 198.48 597.29 205.98 607.36 213.58 617.44 221.01 627.33 228.53 636.95 236.14 646.4 243.57 655.41 251.11 663.86 258.77 671.92 266.26 679.24 273.91 685.69 281.71 691.53 289.38 696.34 297.24 700.01 305.3 702.93 313.27 704.64 321.47 705.09 329.91 704.81 338.3 703.33 346.94 700.68 355.86 697.52 364.74 693.4 373.92 688.44 383.38 683.37 392.83 677.78 402.59 671.83 412.65 666.27 422.71 660.81 432.85 655.61 443.03 651.17 453.22 647.14 463.45 643.59 473.7 640.92 483.95 638.71 494.19 636.93 504.39 635.95 514.57 635.25 524.67 634.74 534.62 634.77 544.51 634.78 554.21 634.65 563.64 634.77 572.92 634.54 581.86 633.87 590.38 633.19 598.65 631.91 606.41 629.98 613.56 627.85 620.37 625 626.49 621.41 631.84 617.54 636.79 612.92 640.92 607.6 644.19 601.99 647.06 595.71 649.09 588.82 650.29 581.69 651.2 574.02 651.4 565.86 650.94 557.54 650.44 548.82 649.5 539.74 648.21 530.57 647.24 521.12 646.19 511.44 645.2 501.71 644.88 491.8 644.85 481.76 645.22 471.7 646.51 461.53 648.33 451.28 650.7 441.04 654.03 430.73 657.84 420.37 662.06 410.02 666.98 399.86 671.92 389.92 676.69 379.96 681.67 370.2 686.12 360.64 689.89 351.05 693.38 341.64 695.9 332.43 697.36 323.16 698.2 314.07 697.83 305.15 696.26 296.17 693.94 287.35 690.42 278.7 685.78 269.97 680.45 261.41 674.11 253.02 666.89 244.56 659.17 236.28 650.73 228.19 641.72 220.06 632.43 212.13 622.72 204.45 612.72 196.74 602.64 189.31 592.39 182.18 582.05 175.08 571.76 168.32 561.46 161.93 551.19 155.63 541.05 149.75 530.95 144.32 520.94 139.02 511.06 134.21 501.24 129.93 491.49 125.81 481.85 122.24 472.25 119.24 462.68 116.42 453.19 114.19 443.7 112.56 434.21 111.09 424.76 110.22 415.29 109.96 405.8 109.83 396.32 110.28 386.8 111.33 377.26 112.45 367.73 114.09 358.39 116.22 349.28 118.34 340.17 120.9 331.29 123.86 322.66 126.75 314.04 130 305.7 133.57 297.64 137.01 289.61 140.75 281.89 144.76 274.51 148.6 267.16 152.71 260.15 157.04 253.51 161.2 246.89 165.6 240.63 170.22 234.75 174.68 228.86 179.39 223.32 184.33 218.14 189.14 212.91 194.21 207.99 199.54 203.37 204.78 198.63 210.31 194.13 216.12 189.87 221.88 185.41 227.95 181.11 234.32 176.97 240.66 172.55 247.32 168.24 254.28 164.02 261.25 159.49 268.52 155.03 276.07 150.66 283.64 145.98 291.49 141.42 299.59 137 307.71 132.35 316.08 127.92 324.68 123.77 333.28 119.54 342.1 115.69 351.11 112.33 360.12 109.06 369.32 106.4 378.69 104.43" stroke-dasharray="0 10" transform="rotate(0, 400, 400)" opacity="0.28"></path><path d="M380.39 115.15C389.43 113.48 398.47 112.61 407.47 112.53 416.48 112.82 425.49 113.92 434.47 115.82 443.48 118.08 452.5 121.11 461.52 124.83 470.61 128.87 479.73 133.54 488.87 138.78 498.12 144.21 507.42 150.13 516.77 156.47 526.25 162.88 535.79 169.63 545.38 176.66 555.08 183.66 564.82 190.87 574.54 198.26 584.34 205.53 594.08 212.95 603.68 220.48 613.25 227.85 622.59 235.33 631.61 242.91 640.43 250.32 648.78 257.84 656.55 265.46 663.93 272.94 670.57 280.55 676.36 288.29 681.58 295.92 685.82 303.71 688.98 311.68 691.47 319.56 692.83 327.65 693.03 335.94 692.59 344.18 691.04 352.65 688.43 361.36 685.38 370.04 681.44 378.98 676.74 388.18 671.95 397.36 666.67 406.82 661.05 416.55 655.78 426.28 650.57 436.05 645.58 445.85 641.25 455.64 637.28 465.46 633.71 475.25 630.94 485.03 628.57 494.78 626.58 504.45 625.32 514.08 624.32 523.59 623.5 532.93 623.22 542.19 622.93 551.22 622.54 559.95 622.43 568.53 622.03 576.74 621.27 584.5 620.55 592.04 619.31 599.04 617.5 605.45 614.28 614.27 604.2 627.84 597.32 632.44 592.27 634.92 586.59 636.64 580.32 637.63 573.83 638.4 566.81 638.55 559.31 638.14 551.65 637.76 543.57 636.99 535.13 635.96 526.59 635.26 517.74 634.51 508.63 633.83 499.48 633.8 490.1 634.03 480.56 634.63 471 636.08 461.3 637.99 451.49 640.37 441.67 643.63 431.76 647.31 421.77 651.33 411.78 656 401.96 660.66 392.31 665.16 382.65 669.86 373.16 674.08 363.84 677.68 354.5 681.06 345.32 683.55 336.3 685.09 327.25 686.09 318.35 685.99 309.6 684.78 300.81 682.91 292.17 679.92 283.68 675.87 275.14 671.19 266.75 665.54 258.53 659.03 250.26 652.03 242.17 644.31 234.27 636 226.34 627.38 218.61 618.32 211.13 608.91 203.65 599.38 196.44 589.62 189.53 579.73 182.66 569.84 176.13 559.88 169.97 549.92 163.9 540.03 158.24 530.17 153.03 520.36 147.95 510.65 143.35 500.98 139.26 491.39 135.34 481.89 131.94 472.42 129.1 463.02 126.44 453.67 124.35 444.35 122.84 435.06 121.5 425.81 120.73 416.56 120.55 407.32 120.5 398.1 121.02 388.88 122.11 379.68 123.27 370.48 124.94 361.5 127.08 352.77 129.21 344.04 131.77 335.56 134.7 327.34 137.57 319.13 140.79 311.2 144.31 303.56 147.72 295.94 151.41 288.62 155.35 281.64 159.14 274.66 163.18 268.01 167.43 261.72 171.52 255.42 175.83 249.46 180.36 243.85 184.73 238.2 189.32 232.88 194.14 227.88 198.82 222.8 203.74 218 208.91 213.47 213.98 208.8 219.31 204.35 224.91 200.1 230.44 195.64 236.26 191.33 242.36 187.16 248.42 182.72 254.79 178.37 261.43 174.12 268.06 169.57 274.98 165.09 282.18 160.71 289.38 156.05 296.85 151.51 304.58 147.12 312.31 142.54 320.3 138.17 328.52 134.1 336.73 129.95 345.18 126.19 353.83 122.9 362.47 119.71 371.33 117.1 380.38 115.15" stroke-dasharray="6 2" transform="rotate(4.04, 400, 400)" opacity="0.36"></path><path d="M382.73 125.88C391.46 124.22 400.21 123.33 408.96 123.19 417.72 123.4 426.49 124.38 435.26 126.13 444.07 128.22 452.91 131.03 461.76 134.53 470.67 138.33 479.62 142.74 488.61 147.71 497.68 152.89 506.8 158.54 515.96 164.62 525.22 170.79 534.53 177.31 543.85 184.12 553.25 190.92 562.65 197.96 572 205.18 581.38 212.33 590.65 219.62 599.75 227.04 608.77 234.34 617.53 241.75 625.92 249.25 634.1 256.62 641.79 264.1 648.88 271.66 655.6 279.1 661.59 286.66 666.75 294.34 671.38 301.91 675.09 309.63 677.79 317.49 679.88 325.28 680.93 333.24 680.92 341.39 680.34 349.48 678.75 357.77 676.19 366.28 673.25 374.75 669.51 383.45 665.07 392.38 660.55 401.3 655.58 410.45 650.27 419.83 645.28 429.22 640.33 438.62 635.53 448 631.34 457.39 627.43 466.76 623.86 476.07 621.01 485.37 618.51 494.6 616.34 503.71 614.84 512.78 613.57 521.7 612.47 530.4 611.88 539.02 611.3 547.38 610.66 555.41 610.31 563.3 609.73 570.8 608.84 577.84 607.42 587.82 602.07 604.55 597.92 611.08 592.91 616.48 579.54 623.36 571.26 624.93 565.36 625.62 558.94 625.78 552.05 625.45 545.02 625.2 537.56 624.64 529.73 623.86 521.8 623.42 513.54 622.97 505 622.59 496.42 622.82 487.58 623.3 478.55 624.1 469.5 625.68 460.28 627.66 450.91 630.05 441.54 633.24 432.04 636.78 422.44 640.61 412.84 645.03 403.36 649.42 394.03 653.65 384.69 658.08 375.48 662.07 366.42 665.49 357.35 668.74 348.41 671.2 339.62 672.78 330.8 673.91 322.11 674.04 313.57 673.16 304.99 671.68 296.55 669.17 288.25 665.68 279.92 661.6 271.73 656.61 263.71 650.78 255.65 644.49 247.77 637.48 240.08 629.87 232.38 621.94 224.88 613.54 217.63 604.76 210.39 595.82 203.42 586.62 196.75 577.23 190.13 567.8 183.85 558.26 177.93 548.68 172.11 539.13 166.69 529.56 161.71 520.03 156.86 510.56 152.47 501.12 148.59 491.74 144.86 482.43 141.65 473.16 138.98 463.96 136.48 454.8 134.53 445.68 133.15 436.62 131.92 427.58 131.25 418.57 131.15 409.61 131.18 400.65 131.76 391.73 132.89 382.85 134.09 373.97 135.78 365.34 137.91 356.97 140.05 348.6 142.59 340.49 145.5 332.65 148.35 324.82 151.53 317.26 155.01 310.01 158.37 302.75 162.01 295.79 165.89 289.16 169.62 282.52 173.59 276.19 177.77 270.19 181.79 264.17 186.03 258.46 190.46 253.07 194.74 247.63 199.24 242.49 203.94 237.62 208.51 232.67 213.3 227.96 218.32 223.49 223.24 218.87 228.4 214.44 233.8 210.19 239.13 205.73 244.73 201.4 250.59 197.2 256.4 192.73 262.49 188.36 268.84 184.07 275.17 179.52 281.78 175.04 288.66 170.66 295.52 166.03 302.65 161.52 310.03 157.19 317.4 152.67 325.03 148.39 332.89 144.39 340.75 140.34 348.84 136.67 357.15 133.45 365.45 130.34 373.98 127.79 382.72 125.88" stroke-dasharray="3 4" transform="rotate(8.08, 400, 400)" opacity="0.83"></path><path d="M385.65 136.6C394.08 134.96 402.55 134.05 411.03 133.86 419.53 133.99 428.06 134.86 436.6 136.45 445.19 138.37 453.81 140.99 462.45 144.25 471.15 147.8 479.9 151.96 488.67 156.65 497.52 161.56 506.41 166.94 515.32 172.74 524.3 178.65 533.31 184.91 542.3 191.47 551.35 198.05 560.35 204.88 569.27 211.91 578.18 218.89 586.94 226.03 595.49 233.31 603.94 240.49 612.09 247.79 619.85 255.2 627.38 262.49 634.41 269.88 640.85 277.36 646.92 284.74 652.29 292.23 656.86 299.81 660.95 307.31 664.16 314.93 666.44 322.68 668.18 330.36 668.95 338.2 668.76 346.18 668.06 354.12 666.45 362.23 663.96 370.52 661.15 378.78 657.6 387.24 653.41 395.88 649.17 404.52 644.49 413.35 639.49 422.38 634.78 431.41 630.07 440.41 625.48 449.38 621.43 458.34 617.6 467.24 614.05 476.06 611.15 484.86 608.54 493.56 606.21 502.1 604.5 510.6 602.98 518.91 601.63 526.98 600.75 534.97 599.9 542.67 599.01 550.02 598.42 557.24 597.64 564.06 596.61 570.42 595.06 579.41 589.87 594.31 586.01 600.06 581.42 604.81 569.26 610.84 561.71 612.23 556.34 612.89 550.48 613.08 544.15 612.87 537.7 612.78 530.83 612.43 523.57 611.91 516.23 611.73 508.55 611.56 500.57 611.46 492.54 611.94 484.25 612.64 475.73 613.62 467.19 615.31 458.45 617.35 449.54 619.74 440.62 622.84 431.55 626.25 422.35 629.88 413.15 634.06 404.04 638.19 395.05 642.15 386.05 646.32 377.15 650.08 368.38 653.32 359.6 656.44 350.93 658.83 342.38 660.44 333.82 661.67 325.37 661.99 317.06 661.38 308.72 660.26 300.5 658.19 292.42 655.2 284.32 651.69 276.36 647.31 268.57 642.14 260.75 636.53 253.1 630.21 245.65 623.3 238.2 616.06 230.95 608.34 223.95 600.21 216.98 591.9 210.27 583.28 203.86 574.45 197.51 565.54 191.49 556.48 185.83 547.33 180.27 538.18 175.1 528.99 170.36 519.79 165.75 510.63 161.59 501.49 157.92 492.38 154.4 483.33 151.38 474.31 148.88 465.35 146.55 456.43 144.74 447.55 143.48 438.73 142.37 429.94 141.8 421.2 141.77 412.52 141.88 403.84 142.5 395.22 143.66 386.66 144.9 378.1 146.6 369.8 148.73 361.78 150.86 353.75 153.38 345.98 156.26 338.5 159.08 331.01 162.22 323.8 165.64 316.88 168.96 309.96 172.54 303.32 176.36 296.99 180.04 290.64 183.94 284.59 188.05 278.85 192.01 273.06 196.17 267.57 200.52 262.36 204.72 257.09 209.13 252.08 213.73 247.33 218.19 242.47 222.87 237.82 227.75 233.39 232.53 228.81 237.54 224.39 242.77 220.12 247.92 215.66 253.32 211.31 258.96 207.07 264.54 202.59 270.39 198.19 276.48 193.89 282.54 189.33 288.87 184.86 295.44 180.5 302 175.91 308.81 171.46 315.87 167.18 322.92 162.75 330.21 158.55 337.75 154.64 345.27 150.7 353.03 147.13 361.01 143.99 368.99 140.97 377.2 138.48 385.64 136.6" stroke-dasharray="2 1" transform="rotate(12.12, 400, 400)" opacity="0.36"></path><path d="M389.05 147.32C397.18 145.71 405.36 144.79 413.58 144.55 421.8 144.6 430.07 145.36 438.38 146.8 446.71 148.55 455.08 150.96 463.49 154 471.94 157.31 480.43 161.19 488.95 165.61 497.52 170.23 506.12 175.32 514.73 180.83 523.38 186.46 532.03 192.44 540.64 198.73 549.27 205.07 557.83 211.65 566.27 218.45 574.67 225.23 582.89 232.18 590.87 239.28 598.72 246.31 606.25 253.47 613.38 260.73 620.26 267.91 626.65 275.19 632.45 282.56 637.91 289.84 642.68 297.22 646.71 304.69 650.29 312.09 653.05 319.6 654.95 327.21 656.37 334.76 656.91 342.45 656.55 350.26 655.78 358.03 654.17 365.95 651.76 374.01 649.07 382.04 645.72 390.24 641.78 398.59 637.8 406.93 633.41 415.44 628.72 424.09 624.27 432.75 619.81 441.35 615.43 449.88 611.52 458.4 607.79 466.83 604.28 475.15 601.35 483.44 598.65 491.6 596.19 499.57 594.29 507.5 592.57 515.21 590.98 522.66 589.85 530.02 588.74 537.09 587.61 543.79 586.29 553.46 582.89 570.36 580.51 577.42 577.74 583.64 569.84 592.93 564.6 595.99 558.68 598.29 544.19 600.38 535.7 600.44 529.78 600.52 523.45 600.39 516.74 600.12 509.95 600.2 502.82 600.29 495.38 600.46 487.89 601.16 480.13 602.05 472.12 603.19 464.08 604.98 455.83 607.06 447.38 609.43 438.93 612.45 430.3 615.71 421.52 619.16 412.74 623.1 404.01 626.97 395.37 630.68 386.73 634.59 378.16 638.12 369.7 641.18 361.23 644.15 352.85 646.47 344.58 648.08 336.3 649.38 328.12 649.85 320.06 649.48 311.99 648.68 304.03 646.99 296.2 644.47 288.36 641.48 280.66 637.67 273.11 633.11 265.57 628.15 258.18 622.5 250.99 616.27 243.82 609.72 236.85 602.67 230.12 595.2 223.43 587.54 217 579.55 210.87 571.3 204.81 562.95 199.07 554.42 193.68 545.76 188.39 537.08 183.49 528.31 179 519.52 174.64 510.73 170.72 501.94 167.26 493.16 163.95 484.42 161.12 475.7 158.8 467.03 156.63 458.39 154.97 449.8 153.83 441.26 152.84 432.75 152.36 424.29 152.41 415.9 152.58 407.52 153.26 399.2 154.44 390.96 155.7 382.72 157.4 374.75 159.52 367.05 161.64 359.34 164.14 351.9 166.97 344.74 169.75 337.57 172.85 330.67 176.21 324.06 179.48 317.43 183 311.08 186.75 305.02 190.38 298.93 194.22 293.11 198.25 287.58 202.15 282 206.23 276.68 210.51 271.62 214.63 266.48 218.95 261.58 223.45 256.91 227.82 252.12 232.39 247.53 237.16 243.12 241.81 238.56 246.68 234.14 251.76 229.86 256.75 225.39 261.97 221.02 267.42 216.76 272.8 212.27 278.42 207.87 284.28 203.55 290.1 199.01 296.17 194.57 302.47 190.23 308.75 185.7 315.27 181.32 322.04 177.11 328.78 172.77 335.77 168.67 342.99 164.86 350.2 161.03 357.65 157.56 365.33 154.52 373 151.59 380.9 149.17 389.04 147.33" stroke-dasharray="4 9" transform="rotate(16.16, 400, 400)" opacity="0.80"></path><path d="M392.81 158.05C400.65 156.46 408.54 155.53 416.47 155.24 424.42 155.23 432.41 155.88 440.44 157.17 448.49 158.76 456.59 160.97 464.72 163.77 472.88 166.84 481.08 170.46 489.29 174.59 497.54 178.92 505.81 183.71 514.06 188.91 522.33 194.24 530.58 199.93 538.76 205.93 546.93 211.99 555 218.31 562.92 224.85 570.79 231.39 578.44 238.12 585.83 245 593.08 251.84 599.99 258.82 606.48 265.9 612.74 272.92 618.5 280.05 623.69 287.27 628.56 294.42 632.78 301.66 636.29 308.98 639.41 316.25 641.76 323.61 643.32 331.06 644.46 338.46 644.79 345.98 644.32 353.59 643.48 361.17 641.88 368.87 639.56 376.69 637.02 384.48 633.86 392.41 630.16 400.45 626.44 408.48 622.34 416.64 617.94 424.92 613.76 433.19 609.54 441.37 605.37 449.45 601.61 457.53 597.98 465.48 594.53 473.29 591.59 481.07 588.84 488.69 586.28 496.1 584.23 503.46 582.32 510.59 580.53 517.44 579.16 524.2 577.82 530.66 576.46 536.76 574.81 545.53 570.96 560.74 568.48 567.04 561.98 576.73 547.89 585.75 541.53 587 534.58 587.9 518.43 588.48 509.31 588.51 503.04 588.83 496.43 589.16 489.5 589.57 482.53 590.47 475.28 591.54 467.77 592.82 460.23 594.68 452.46 596.79 444.49 599.14 436.5 602.05 428.32 605.17 419.96 608.44 411.61 612.14 403.29 615.77 395.02 619.23 386.76 622.88 378.55 626.18 370.41 629.06 362.28 631.87 354.22 634.11 346.25 635.7 338.28 637.04 330.4 637.63 322.62 637.47 314.84 636.93 307.16 635.59 299.62 633.48 292.07 630.96 284.65 627.68 277.39 623.7 270.13 619.34 263.04 614.34 256.14 608.76 249.27 602.88 242.6 596.5 236.16 589.7 229.78 582.69 223.65 575.33 217.81 567.7 212.05 559.95 206.6 551.98 201.5 543.86 196.5 535.68 191.87 527.4 187.64 519.05 183.54 510.7 179.86 502.31 176.62 493.92 173.53 485.54 170.9 477.17 168.75 468.84 166.75 460.52 165.23 452.25 164.21 444.03 163.34 435.83 162.95 427.67 163.07 419.6 163.3 411.53 164.02 403.52 165.22 395.6 166.49 387.68 168.2 380.02 170.29 372.63 172.39 365.24 174.85 358.11 177.64 351.25 180.38 344.37 183.42 337.76 186.72 331.42 189.93 325.06 193.4 318.96 197.07 313.13 200.64 307.27 204.41 301.66 208.37 296.3 212.2 290.89 216.22 285.71 220.41 280.77 224.46 275.75 228.7 270.94 233.11 266.32 237.39 261.59 241.86 257.03 246.52 252.64 251.06 248.09 255.8 243.67 260.74 239.38 265.58 234.9 270.64 230.53 275.91 226.25 281.12 221.77 286.54 217.37 292.19 213.06 297.79 208.55 303.62 204.14 309.68 199.86 315.7 195.4 321.96 191.09 328.45 186.97 334.92 182.74 341.62 178.75 348.55 175.05 355.46 171.34 362.61 167.98 369.99 165.04 377.36 162.2 384.97 159.85 392.8 158.05" stroke-dasharray="10 2" transform="rotate(20.200000000000003, 400, 400)" opacity="0.20"></path><path d="M396.82 168.77C404.36 167.22 411.95 166.28 419.59 165.95 427.23 165.87 434.93 166.42 442.66 167.57 450.41 168.99 458.21 171.01 466.02 173.58 473.86 176.4 481.72 179.76 489.58 183.6 497.47 187.63 505.35 192.12 513.2 197 521.05 202.02 528.85 207.4 536.56 213.08 544.24 218.84 551.8 224.87 559.17 231.12 566.48 237.39 573.55 243.86 580.34 250.49 586.98 257.1 593.27 263.85 599.15 270.72 604.8 277.55 609.96 284.49 614.58 291.51 618.89 298.49 622.6 305.55 625.64 312.69 628.33 319.79 630.32 326.97 631.57 334.23 632.46 341.45 632.63 348.77 632.06 356.16 631.17 363.52 629.61 370.99 627.39 378.53 624.99 386.07 622.03 393.7 618.57 401.42 615.11 409.13 611.28 416.93 607.16 424.81 603.24 432.69 599.26 440.45 595.3 448.08 591.7 455.7 588.19 463.17 584.81 470.47 581.88 477.75 579.1 484.84 576.47 491.7 574.29 498.52 572.23 505.09 570.27 511.36 567.91 520.51 563.61 536.94 561.41 544.1 556.6 555.95 546.66 568.73 542.07 571.26 537 573.29 524.7 575.6 517.5 576.1 509.81 576.7 492.53 577.9 483.03 578.81 476.55 579.88 469.79 581.11 462.76 582.5 455.71 584.41 448.42 586.53 440.91 588.84 433.38 591.66 425.65 594.63 417.74 597.71 409.82 601.19 401.91 604.57 394.04 607.79 386.17 611.19 378.33 614.27 370.55 616.96 362.78 619.62 355.06 621.75 347.42 623.31 339.79 624.66 332.23 625.35 324.76 625.36 317.3 625.04 309.94 624.01 302.7 622.27 295.47 620.17 288.37 617.37 281.41 613.92 274.48 610.13 267.71 605.73 261.12 600.77 254.57 595.54 248.22 589.81 242.1 583.66 236.04 577.31 230.23 570.59 224.71 563.58 219.26 556.45 214.12 549.07 209.31 541.51 204.61 533.89 200.26 526.13 196.3 518.27 192.46 510.4 189.02 502.46 186.01 494.49 183.14 486.53 180.71 478.55 178.73 470.6 176.9 462.65 175.53 454.73 174.63 446.85 173.86 438.99 173.56 431.17 173.75 423.42 174.03 415.68 174.78 408 176 400.4 177.28 392.8 178.97 385.46 181.04 378.37 183.11 371.28 185.53 364.44 188.26 357.86 190.95 351.26 193.93 344.92 197.16 338.82 200.31 332.71 203.71 326.83 207.31 321.2 210.81 315.53 214.51 310.1 218.39 304.89 222.15 299.63 226.09 294.58 230.2 289.73 234.18 284.8 238.34 280.06 242.66 275.49 246.86 270.81 251.23 266.28 255.78 261.9 260.22 257.37 264.84 252.95 269.65 248.65 274.36 244.18 279.28 239.81 284.38 235.53 289.42 231.06 294.67 226.69 300.12 222.41 305.52 217.95 311.14 213.6 316.97 209.37 322.76 205 328.77 200.79 335.01 196.77 341.21 192.66 347.65 188.79 354.3 185.2 360.94 181.62 367.8 178.38 374.89 175.54 381.96 172.8 389.27 170.52 396.81 168.77" stroke-dasharray="2 3" transform="rotate(24.24, 400, 400)" opacity="0.17"></path><path d="M400.93 179.49C408.16 177.98 415.45 177.04 422.77 176.67 430.11 176.53 437.49 176.98 444.89 178 452.31 179.26 459.77 181.08 467.23 183.43 474.71 186.01 482.21 189.1 489.68 192.65 497.17 196.39 504.63 200.56 512.03 205.12 519.43 209.82 526.75 214.86 533.95 220.21 541.12 225.65 548.14 231.36 554.95 237.3 561.68 243.27 568.17 249.45 574.36 255.79 580.41 262.14 586.1 268.63 591.38 275.25 596.44 281.84 601.04 288.54 605.11 295.33 608.91 302.1 612.14 308.95 614.76 315.87 617.06 322.76 618.72 329.73 619.71 336.76 620.4 343.76 620.42 350.84 619.77 357.98 618.87 365.11 617.35 372.31 615.25 379.56 612.99 386.81 610.22 394.13 607 401.51 603.78 408.88 600.22 416.31 596.38 423.78 592.72 431.25 588.98 438.59 585.22 445.76 581.79 452.93 578.4 459.93 575.11 466.73 572.21 473.52 569.42 480.09 566.75 486.43 564.47 492.72 562.29 498.76 560.18 504.5 557.56 512.86 552.69 527.77 550.24 534.23 545.12 544.94 535.23 556.57 530.85 558.94 526.08 560.94 514.64 563.47 507.97 564.23 500.86 565.11 484.87 566.95 476.06 568.15 470.04 569.39 463.75 570.74 457.19 572.23 450.61 574.18 443.78 576.29 436.73 578.55 429.67 581.26 422.39 584.09 414.92 586.99 407.45 590.24 399.97 593.39 392.5 596.38 385.04 599.53 377.59 602.39 370.19 604.9 362.8 607.39 355.45 609.41 348.16 610.92 340.88 612.26 333.67 613.01 326.55 613.15 319.44 613.03 312.42 612.25 305.52 610.83 298.63 609.11 291.87 606.75 285.25 603.78 278.66 600.51 272.22 596.67 265.97 592.3 259.77 587.68 253.76 582.58 247.98 577.07 242.26 571.35 236.78 565.28 231.58 558.89 226.46 552.38 221.64 545.61 217.13 538.64 212.74 531.59 208.68 524.37 204.98 517.05 201.41 509.68 198.23 502.23 195.44 494.73 192.79 487.22 190.56 479.67 188.75 472.13 187.09 464.59 185.85 457.06 185.07 449.56 184.42 442.06 184.2 434.6 184.44 427.2 184.78 419.8 185.56 412.46 186.78 405.19 188.06 397.92 189.74 390.89 191.76 384.1 193.81 377.31 196.18 370.75 198.84 364.43 201.48 358.1 204.38 352 207.54 346.13 210.62 340.23 213.94 334.56 217.46 329.12 220.88 323.63 224.5 318.34 228.3 313.27 231.99 308.14 235.85 303.19 239.87 298.43 243.78 293.59 247.85 288.9 252.08 284.38 256.2 279.74 260.48 275.24 264.92 270.87 269.26 266.36 273.77 261.96 278.45 257.66 283.05 253.22 287.82 248.86 292.78 244.59 297.67 240.16 302.75 235.82 308.01 231.59 313.23 227.2 318.65 222.92 324.26 218.78 329.84 214.51 335.62 210.41 341.61 206.5 347.58 202.52 353.75 198.78 360.14 195.32 366.51 191.87 373.09 188.76 379.89 186.02 386.68 183.39 393.69 181.2 400.92 179.5" stroke-dasharray="6 10" transform="rotate(28.28, 400, 400)" opacity="0.24"></path><path d="M405.02 190.22C411.93 188.74 418.9 187.8 425.89 187.4 432.9 187.21 439.94 187.57 446.99 188.45 454.06 189.56 461.15 191.2 468.23 193.33 475.33 195.67 482.42 198.49 489.47 201.75 496.52 205.19 503.53 209.05 510.47 213.28 517.38 217.64 524.2 222.35 530.88 227.35 537.51 232.45 543.97 237.82 550.22 243.42 556.38 249.07 562.29 254.92 567.89 260.95 573.35 266.99 578.46 273.19 583.17 279.51 587.68 285.83 591.75 292.26 595.32 298.78 598.64 305.29 601.44 311.88 603.67 318.55 605.63 325.19 607 331.91 607.76 338.68 608.27 345.43 608.17 352.24 607.48 359.1 606.58 365.96 605.12 372.86 603.13 379.81 601.01 386.75 598.44 393.73 595.45 400.75 592.47 407.77 589.17 414.81 585.6 421.87 582.19 428.93 578.68 435.83 575.14 442.56 571.87 449.27 568.62 455.8 565.44 462.13 562.59 468.43 559.81 474.52 557.12 480.35 553.64 488.92 547.43 504.58 544.58 511.58 539.45 523.74 531.04 538.09 527.63 541.48 519.63 546.6 504.53 551.57 498.32 552.57 491.72 553.73 476.9 556.15 468.71 557.62 463.13 558.98 457.28 560.44 451.17 562 445.04 563.97 438.66 566.06 432.06 568.27 425.45 570.86 418.62 573.54 411.6 576.27 404.58 579.3 397.53 582.22 390.48 584.98 383.44 587.9 376.4 590.55 369.4 592.87 362.4 595.19 355.43 597.09 348.53 598.54 341.63 599.85 334.79 600.64 328.04 600.88 321.3 600.9 314.65 600.35 308.11 599.21 301.59 597.82 295.19 595.84 288.93 593.31 282.7 590.52 276.63 587.19 270.74 583.37 264.9 579.32 259.25 574.82 253.82 569.91 248.45 564.81 243.32 559.36 238.46 553.59 233.68 547.7 229.18 541.54 224.99 535.16 220.9 528.69 217.13 522.05 213.71 515.27 210.41 508.44 207.48 501.51 204.92 494.5 202.49 487.47 200.45 480.39 198.82 473.29 197.32 466.18 196.22 459.07 195.55 451.96 195 444.87 194.86 437.79 195.15 430.75 195.54 423.71 196.34 416.72 197.56 409.78 198.84 402.85 200.48 396.13 202.47 389.64 204.47 383.14 206.78 376.86 209.37 370.79 211.94 364.71 214.77 358.85 217.84 353.19 220.85 347.51 224.08 342.02 227.51 336.74 230.85 331.42 234.39 326.28 238.09 321.33 241.7 316.31 245.47 311.46 249.4 306.78 253.23 302.01 257.21 297.39 261.34 292.91 265.37 288.32 269.56 283.86 273.89 279.51 278.14 275.04 282.54 270.66 287.1 266.39 291.57 261.98 296.22 257.65 301.03 253.42 305.77 249.05 310.69 244.78 315.78 240.6 320.83 236.3 326.05 232.12 331.47 228.07 336.84 223.93 342.4 219.95 348.16 216.17 353.89 212.34 359.82 208.74 365.94 205.41 372.05 202.11 378.36 199.12 384.87 196.5 391.38 193.97 398.09 191.87 405.01 190.22" stroke-dasharray="9 3" transform="rotate(32.32, 400, 400)" opacity="0.46"></path><path d="M408.93 200.94C415.52 199.51 422.15 198.58 428.8 198.15 435.46 197.91 442.14 198.18 448.82 198.94 455.52 199.9 462.21 201.35 468.89 203.27 475.57 205.38 482.23 207.94 488.83 210.92 495.43 214.06 501.97 217.6 508.41 221.49 514.82 225.52 521.12 229.88 527.26 234.52 533.35 239.27 539.26 244.28 544.95 249.52 550.54 254.82 555.88 260.33 560.91 266.01 565.81 271.72 570.36 277.59 574.53 283.59 578.53 289.59 582.1 295.71 585.2 301.93 588.1 308.14 590.5 314.44 592.38 320.81 594.04 327.16 595.16 333.59 595.73 340.06 596.09 346.52 595.9 353.04 595.19 359.59 594.29 366.14 592.9 372.72 591.03 379.33 589.07 385.94 586.69 392.57 583.93 399.21 581.18 405.86 578.13 412.51 574.82 419.15 571.65 425.79 568.37 432.26 565.04 438.54 561.95 444.81 558.85 450.89 555.78 456.75 553 462.59 550.26 468.21 547.57 473.58 544.02 481.45 537.51 495.77 534.47 502.15 528.92 513.24 520.07 526.43 516.64 529.6 508.82 534.61 494.46 539.9 488.65 541.14 482.5 542.56 468.72 545.5 461.12 547.2 455.94 548.66 450.5 550.2 444.82 551.81 439.11 553.79 433.17 555.85 427.01 557.98 420.85 560.46 414.47 563 407.89 565.54 401.31 568.37 394.7 571.07 388.09 573.61 381.47 576.3 374.86 578.73 368.26 580.87 361.68 583.02 355.12 584.79 348.61 586.16 342.12 587.43 335.68 588.23 329.31 588.55 322.97 588.69 316.7 588.31 310.55 587.41 304.42 586.3 298.4 584.66 292.52 582.52 286.68 580.15 280.99 577.3 275.47 573.98 270.01 570.46 264.73 566.52 259.66 562.18 254.66 557.67 249.89 552.82 245.37 547.65 240.94 542.36 236.77 536.8 232.89 531.01 229.12 525.13 225.65 519.07 222.51 512.84 219.47 506.57 216.78 500.16 214.46 493.67 212.24 487.15 210.4 480.56 208.94 473.92 207.59 467.27 206.63 460.6 206.07 453.91 205.61 447.23 205.55 440.55 205.89 433.89 206.31 427.24 207.12 420.6 208.34 414.01 209.6 407.42 211.22 401.03 213.15 394.83 215.1 388.63 217.34 382.62 219.86 376.8 222.35 370.98 225.1 365.33 228.07 359.88 231 354.41 234.13 349.1 237.46 343.98 240.71 338.82 244.15 333.82 247.75 328.98 251.27 324.08 254.95 319.33 258.78 314.73 262.52 310.05 266.41 305.49 270.43 301.06 274.37 296.53 278.46 292.12 282.68 287.8 286.82 283.38 291.11 279.05 295.54 274.82 299.9 270.47 304.41 266.2 309.08 262.03 313.68 257.74 318.44 253.54 323.37 249.46 328.24 245.26 333.29 241.19 338.5 237.26 343.67 233.26 349.03 229.42 354.55 225.78 360.06 222.1 365.74 218.65 371.6 215.47 377.45 212.31 383.49 209.46 389.71 206.96 395.92 204.55 402.33 202.53 408.92 200.94" stroke-dasharray="1 9" transform="rotate(36.36, 400, 400)" opacity="1.00"></path><path d="M412.55 211.66C418.8 210.28 425.08 209.37 431.37 208.91 437.67 208.63 443.97 208.81 450.26 209.46 462.86 211.29 475.4 214.92 487.68 220.15 499.92 226 511.8 233.29 523.07 241.75 534.11 250.61 544.33 260.45 553.42 271.02 562.02 281.76 569.24 293.1 574.8 304.83 579.62 316.6 582.62 328.71 583.63 340.99 583.93 353.27 582.36 365.73 578.97 378.22 577.16 384.48 574.97 390.74 572.43 396.99 569.91 403.25 567.1 409.5 564.04 415.71 561.11 421.93 558.06 427.97 554.94 433.81 552.02 439.65 549.08 445.29 546.13 450.71 541 461.5 535.93 471.37 530.98 480.19 526.99 488.87 522.92 496.43 518.65 502.77 515 508.98 510.82 514.01 506 517.86 501.42 521.75 495.94 524.68 489.5 526.75 483.07 529.29 475.57 531.36 467.05 533.13 458.46 535.88 448.84 538.7 438.28 541.67 432.98 543.63 427.46 545.64 421.73 547.7 415.99 550.06 410.05 552.44 403.92 554.82 397.78 557.44 391.61 559.92 385.43 562.25 379.25 564.72 373.07 566.94 366.9 568.9 354.59 572.86 342.38 575.34 330.44 576.17 318.6 576.48 307.08 574.88 296.08 571.45 285.24 567.29 275 561.35 265.55 553.89 256.37 545.85 248.07 536.5 240.87 526.16 234.04 515.49 228.37 504.06 224.06 492.15 220.16 480.12 217.64 467.75 216.62 455.26 216.26 449.01 216.26 442.75 216.64 436.48 217.1 430.22 217.92 423.96 219.12 417.72 220.36 411.49 221.94 405.42 223.81 399.52 225.7 393.62 227.87 387.88 230.3 382.32 235.1 371.15 240.83 360.62 247.3 350.72 253.55 340.68 260.49 331.18 267.99 322.21 275.18 312.97 282.96 304.13 291.24 295.72 299.22 286.93 307.78 278.47 316.87 270.4 325.73 261.93 335.21 253.86 345.27 246.35 355.19 238.61 365.78 231.57 377 225.5 382.59 222.5 388.35 219.79 394.27 217.41 400.19 215.12 406.28 213.19 412.54 211.67" stroke-dasharray="5 1" transform="rotate(40.400000000000006, 400, 400)" opacity="0.07"></path><path d="M415.74 222.39C427.56 219.87 439.42 219.1 451.18 220.01 462.95 221.56 474.6 224.77 485.93 229.47 497.2 234.73 508.05 241.34 518.26 249.07 528.23 257.18 537.38 266.25 545.43 276.04 553.04 286.03 559.35 296.61 564.11 307.59 568.26 318.63 570.76 330.02 571.48 341.57 571.62 353.14 570.09 364.87 566.95 376.61 563.59 388.35 558.96 400.11 553.26 411.7 547.98 423.29 542.31 434.14 536.5 444.15 531.52 454.12 526.52 463.19 521.57 471.26 517.44 479.24 513.2 486.19 508.77 492.05 504.91 497.83 500.61 502.58 495.75 506.3 491.16 510.14 485.79 513.15 479.62 515.43 473.48 518.18 466.42 520.53 458.45 522.61 450.43 525.56 441.49 528.53 431.69 531.57 421.86 535.68 411.2 539.92 399.81 544.1 388.43 549.11 376.9 553.47 365.42 556.97 353.98 560.61 342.62 562.91 331.53 563.77 320.54 564.22 309.85 562.99 299.67 560.12 289.66 556.65 280.21 551.57 271.53 545.07 263.09 538.06 255.51 529.81 248.95 520.58 242.72 511.04 237.6 500.72 233.73 489.85 230.24 478.86 228.03 467.47 227.21 455.88 226.73 444.27 227.6 432.52 229.89 420.77 232.37 409.03 236.04 397.83 240.69 387.23 245.32 376.58 250.82 366.46 257.05 356.89 263.08 347.2 269.78 337.96 277.02 329.18 284.01 320.17 291.54 311.52 299.55 303.26 307.31 294.68 315.59 286.41 324.36 278.54 332.93 270.35 342.05 262.56 351.7 255.34 361.23 247.95 371.35 241.26 382.03 235.5 392.66 229.87 403.91 225.41 415.73 222.39" stroke-dasharray="10 6" transform="rotate(44.44, 400, 400)" opacity="0.24"></path><path d="M418.41 233.11C429.5 230.69 440.58 229.87 451.5 230.6 462.42 231.88 473.15 234.69 483.52 238.87 493.81 243.55 503.65 249.5 512.81 256.5 521.77 263.86 529.89 272.14 536.97 281.12 543.65 290.31 549.12 300.09 553.19 310.27 556.74 320.54 558.81 331.14 559.29 341.91 559.32 352.72 557.86 363.67 554.95 374.61 551.9 385.56 547.7 396.49 542.48 407.24 537.63 417.99 532.35 428.02 526.88 437.23 522.09 446.42 517.21 454.76 512.3 462.17 508.1 469.53 503.75 475.95 499.23 481.4 495.21 486.84 490.8 491.37 485.94 495.03 481.33 498.83 476.07 501.93 470.12 504.42 464.24 507.35 457.56 509.94 450.08 512.27 442.59 515.37 434.28 518.44 425.2 521.51 416.09 525.49 406.24 529.49 395.71 533.37 385.19 537.97 374.54 541.93 363.93 545.08 353.37 548.39 342.89 550.51 332.66 551.35 322.53 551.9 312.7 550.96 303.36 548.56 294.17 545.69 285.54 541.37 277.62 535.74 269.94 529.68 263.06 522.45 257.13 514.27 251.52 505.81 246.92 496.56 243.49 486.72 240.38 476.77 238.47 466.36 237.84 455.68 237.51 444.98 238.43 434.05 240.67 423.05 243.08 412.05 246.6 401.49 251.04 391.41 255.47 381.3 260.74 371.62 266.68 362.41 272.48 353.09 278.92 344.15 285.87 335.61 292.61 326.88 299.87 318.46 307.58 310.41 315.08 302.09 323.07 294.07 331.49 286.45 339.75 278.59 348.51 271.13 357.72 264.24 366.84 257.23 376.48 250.9 386.6 245.47 396.69 240.18 407.31 235.98 418.41 233.11" stroke-dasharray="4 5" transform="rotate(48.48, 400, 400)" opacity="0.30"></path><path d="M420.46 243.84C430.81 241.52 441.08 240.67 451.14 241.22 461.19 242.26 471 244.69 480.4 248.37 489.73 252.5 498.57 257.79 506.74 264.07 514.7 270.68 521.87 278.17 528.04 286.33 533.88 294.69 538.6 303.63 542.04 312.97 545.07 322.42 546.77 332.19 547.07 342.14 547.02 352.13 545.65 362.26 543 372.38 540.24 382.51 536.44 392.61 531.71 402.52 527.27 412.43 522.39 421.65 517.26 430.12 512.7 438.57 507.98 446.23 503.17 453.06 498.95 459.86 494.57 465.83 490 470.95 485.88 476.09 481.42 480.46 476.57 484.07 471.96 487.85 466.8 491.05 461.06 493.72 455.41 496.8 449.08 499.58 442.07 502.11 435.06 505.3 427.33 508.42 418.94 511.48 410.52 515.3 401.44 519.07 391.76 522.65 382.08 526.84 372.3 530.41 362.57 533.23 352.88 536.21 343.28 538.14 333.93 538.94 324.67 539.53 315.71 538.82 307.22 536.82 298.86 534.45 291.03 530.79 283.88 525.93 276.95 520.73 270.76 514.44 265.46 507.24 260.43 499.8 256.34 491.57 253.33 482.74 250.61 473.8 248.97 464.36 248.52 454.59 248.32 444.79 249.28 434.71 251.45 424.48 253.78 414.24 257.13 404.33 261.35 394.82 265.56 385.27 270.57 376.06 276.22 367.24 281.75 358.33 287.89 349.73 294.53 341.49 300.99 333.08 307.95 324.95 315.33 317.16 322.53 309.17 330.19 301.46 338.24 294.15 346.15 286.66 354.51 279.57 363.27 273.04 371.95 266.45 381.08 260.51 390.63 255.42 400.14 250.48 410.1 246.54 420.46 243.84" stroke-dasharray="1 5" transform="rotate(52.52, 400, 400)" opacity="0.90"></path><path d="M421.82 254.56C431.41 252.36 440.85 251.49 450.05 251.89 459.22 252.7 468.11 254.77 476.57 257.97 484.95 261.57 492.83 266.23 500.04 271.8 507.08 277.67 513.35 284.36 518.69 291.69 523.76 299.22 527.81 307.31 530.71 315.78 533.29 324.37 534.69 333.29 534.85 342.38 534.74 351.52 533.48 360.8 531.08 370.07 528.62 379.36 525.21 388.62 520.93 397.7 516.9 406.78 512.41 415.24 507.65 423 503.34 430.75 498.82 437.8 494.16 444.1 490 450.39 485.64 455.97 481.09 460.8 476.94 465.69 472.47 469.91 467.66 473.5 463.09 477.27 458.04 480.53 452.52 483.35 447.09 486.54 441.08 489.45 434.51 492.12 427.95 495.36 420.78 498.48 413.03 501.48 405.27 505.12 396.93 508.64 388.08 511.93 379.23 515.72 370.3 518.92 361.44 521.42 352.62 524.08 343.9 525.81 335.43 526.54 327.04 527.14 318.94 526.6 311.29 524.92 303.76 522.98 296.73 519.88 290.34 515.71 284.14 511.28 278.62 505.84 273.93 499.53 269.48 493.04 265.88 485.78 263.27 477.91 260.9 469.94 259.53 461.45 259.24 452.58 259.16 443.68 260.14 434.45 262.23 424.99 264.46 415.54 267.63 406.31 271.61 397.38 275.59 388.42 280.31 379.73 285.64 371.35 290.88 362.89 296.7 354.69 302.98 346.8 309.14 338.77 315.76 331 322.77 323.54 329.64 315.92 336.93 308.59 344.57 301.64 352.1 294.57 360.03 287.89 368.3 281.77 376.5 275.61 385.1 270.08 394.04 265.35 402.95 260.76 412.23 257.1 421.82 254.56" stroke-dasharray="2 6" transform="rotate(56.56, 400, 400)" opacity="0.70"></path><path d="M422.45 265.28C431.25 263.21 439.86 262.34 448.18 262.59 456.49 263.2 464.47 264.93 472.01 267.69 479.47 270.77 486.43 274.83 492.75 279.71 498.92 284.86 504.36 290.77 508.96 297.28 513.33 303.97 516.78 311.19 519.22 318.8 521.4 326.51 522.55 334.54 522.62 342.76 522.49 351.03 521.35 359.44 519.2 367.85 517.02 376.29 513.99 384.71 510.15 392.97 506.52 401.24 502.43 408.94 498.03 416.03 494 423.12 489.72 429.59 485.27 435.41 481.21 441.25 476.94 446.46 472.49 451.04 468.35 455.69 463.93 459.79 459.22 463.35 454.72 467.08 449.82 470.39 444.52 473.31 439.32 476.56 433.64 479.56 427.48 482.31 421.36 485.53 414.71 488.61 407.59 491.52 400.47 494.95 392.85 498.21 384.8 501.2 376.75 504.62 368.67 507.46 360.67 509.65 352.7 512 344.85 513.52 337.25 514.17 329.72 514.74 322.48 514.31 315.65 512.91 308.94 511.3 302.69 508.69 297.04 505.12 291.54 501.35 286.69 496.67 282.58 491.19 278.67 485.56 275.55 479.2 273.31 472.24 271.28 465.2 270.15 457.63 270 449.64 270.02 441.63 271.01 433.24 273.01 424.58 275.13 415.92 278.11 407.39 281.82 399.08 285.56 390.76 289.97 382.62 294.95 374.73 299.88 366.78 305.34 359.04 311.25 351.55 317.05 343.97 323.29 336.62 329.89 329.55 336.39 322.38 343.27 315.47 350.46 308.95 357.57 302.33 365.02 296.11 372.77 290.42 380.47 284.72 388.5 279.61 396.79 275.25 405.07 271.02 413.65 267.65 422.45 265.28" stroke-dasharray="0 6" transform="rotate(60.599999999999994, 400, 400)" opacity="0.66"></path><path d="M422.33 276.01C430.33 274.07 438.1 273.2 445.56 273.33 453 273.76 460.1 275.18 466.75 277.52 473.34 280.13 479.43 283.6 484.91 287.83 490.27 292.29 494.97 297.43 498.89 303.14 502.64 309 505.57 315.37 507.61 322.1 509.46 328.93 510.4 336.08 510.41 343.41 510.28 350.79 509.26 358.33 507.37 365.89 505.45 373.46 502.78 381.04 499.36 388.51 496.12 395.97 492.43 402.95 488.41 409.4 484.69 415.85 480.68 421.78 476.48 427.16 472.59 432.55 468.47 437.43 464.17 441.78 457.97 448.18 444.51 458.99 437.11 463.62 432.15 466.87 426.8 469.88 421.07 472.65 415.37 475.81 409.24 478.8 402.73 481.58 396.21 484.78 389.3 487.78 382.03 490.48 374.76 493.52 367.5 496.02 360.34 497.93 353.21 499.98 346.22 501.29 339.47 501.84 332.77 502.35 326.36 502.01 320.35 500.81 311.68 498.38 297.07 489.03 291.41 482.3 288.02 477.44 285.35 471.91 283.46 465.81 281.75 459.63 280.84 452.94 280.8 445.81 280.92 438.66 281.9 431.11 283.79 423.25 285.78 415.39 288.55 407.6 292 399.95 295.46 392.28 299.55 384.74 304.17 377.39 308.75 370.01 313.82 362.78 319.31 355.77 324.73 348.71 330.55 341.83 336.71 335.23 342.78 328.55 349.21 322.13 355.9 316.07 362.54 309.96 369.48 304.23 376.67 299 383.82 293.78 391.24 289.11 398.87 285.13 406.48 281.28 414.33 278.19 422.33 276.01" stroke-dasharray="10 7" transform="rotate(64.64, 400, 400)" opacity="0.84"></path><path d="M421.46 286.73C428.65 284.94 435.58 284.09 442.19 284.12 448.78 284.39 455.02 285.53 460.82 287.47 466.58 289.64 471.85 292.57 476.57 296.18 481.19 299.97 485.2 304.38 488.53 309.31 491.72 314.37 494.2 319.9 495.9 325.77 497.46 331.73 498.25 337.99 498.23 344.45 498.11 350.95 497.23 357.61 495.57 364.31 493.92 371.04 491.59 377.79 488.59 384.46 485.72 391.14 482.42 397.41 478.79 403.25 475.39 409.08 471.69 414.48 467.78 419.43 462.16 426.67 450.16 439.14 443.74 444.46 437.29 449.67 423.11 458.94 415.31 463.16 410.04 466.19 404.43 469.05 398.51 471.67 392.6 474.62 386.37 477.34 379.86 479.75 373.35 482.44 366.89 484.62 360.56 486.25 354.24 488.01 348.07 489.12 342.15 489.56 333.47 489.85 317.9 486.62 311.26 483.09 305.28 478.68 296.42 466.37 293.73 458.67 292.3 453.31 291.59 447.44 291.66 441.14 291.85 434.83 292.8 428.11 294.57 421.07 296.42 414.01 298.97 406.97 302.13 400.01 305.3 393.04 309.05 386.15 313.28 379.4 317.48 372.63 322.15 365.98 327.19 359.51 332.18 353.01 337.55 346.68 343.21 340.6 348.83 334.47 354.75 328.59 360.91 323.04 367.03 317.48 373.41 312.27 379.99 307.52 386.55 302.8 393.33 298.59 400.26 295 407.18 291.52 414.28 288.72 421.46 286.73" stroke-dasharray="10 2" transform="rotate(68.68, 400, 400)" opacity="0.32"></path><path d="M419.87 297.45C432.6 294.38 444.25 294.56 454.3 297.56 464.19 301.26 472.25 307.59 477.94 315.83 483.26 324.53 486.08 334.83 486.09 345.98 485.86 357.28 483.09 369.19 477.81 380.99 472.94 392.8 466.5 403.33 459.16 412.35 452.55 421.47 444.95 429.3 436.67 435.77 428.84 442.73 419.97 448.79 410.23 453.81 400.62 459.78 389.89 465.02 378.37 469.03 366.84 473.9 355.64 476.71 345.36 477.35 335.2 478.06 326.15 476.15 318.83 471.78 311.82 467.15 306.74 460.06 304.11 450.94 301.88 441.67 302.17 430.57 305.35 418.09 308.8 405.61 314.67 392.99 322.29 380.8 329.89 368.57 339.13 356.68 349.41 345.7 359.59 334.64 370.87 324.5 382.75 315.99 394.59 307.64 407.14 301.19 419.87 297.45" stroke-dasharray="11 5" transform="rotate(72.72, 400, 400)" opacity="0.32"></path><path d="M417.62 308.18C428.7 305.39 438.71 305.39 447.24 307.78 455.66 310.71 462.44 315.88 467.16 322.75 471.64 329.96 474 338.62 473.99 348.11 473.85 357.71 471.54 367.95 467.03 378.23 462.83 388.51 457.16 397.85 450.61 405.99 444.58 414.22 437.6 421.47 430 427.59 422.76 434.1 414.63 439.84 405.85 444.61 397.18 450.08 387.66 454.79 377.6 458.31 367.54 462.47 357.89 464.78 349.13 465.22 340.46 465.76 332.83 464.1 326.73 460.36 320.87 456.48 316.68 450.5 314.61 442.73 312.84 434.85 313.23 425.31 316.13 414.45 319.23 403.59 324.46 392.48 331.21 381.68 337.97 370.87 346.19 360.32 355.34 350.58 364.43 340.81 374.47 331.89 384.99 324.42 395.49 317.12 406.54 311.48 417.62 308.18" stroke-dasharray="5 7" transform="rotate(76.76, 400, 400)" opacity="0.29"></path><path d="M414.77 318.9C424.21 316.43 432.64 316.28 439.76 318.13 446.79 320.37 452.4 324.5 456.27 330.08 460 335.91 461.96 343.01 461.96 350.9 461.9 358.87 460.02 367.48 456.25 376.28 452.71 385.06 447.83 393.19 442.12 400.41 436.75 407.71 430.52 414.27 423.72 419.92 417.18 425.86 409.91 431.14 402.16 435.53 394.5 440.42 386.21 444.57 377.58 447.58 368.95 451.07 360.8 452.92 353.5 453.18 343.1 452.82 328.49 443.18 325.23 434.16 323.86 427.57 324.33 419.52 326.9 410.27 329.65 401.01 334.19 391.47 340.04 382.15 345.92 372.83 353.07 363.71 361 355.28 368.92 346.88 377.65 339.22 386.74 332.82 395.84 326.58 405.34 321.76 414.77 318.9" stroke-dasharray="8 1" transform="rotate(80.80000000000001, 400, 400)" opacity="0.07"></path><path d="M411.43 329.62C422.69 327.38 439.92 331.86 445.32 337.84 448.35 342.4 449.97 348.05 450 354.42 450.01 360.85 448.53 367.89 445.47 375.2 442.57 382.51 438.49 389.4 433.66 395.63 429.05 401.93 423.66 407.69 417.78 412.74 412.07 417.99 405.77 422.68 399.13 426.58 392.54 430.81 385.51 434.35 378.31 436.86 367.76 440.41 350.05 440.8 343.59 437.51 338.44 432.78 335.21 416.68 337.68 405.71 340.03 398.05 343.87 390.11 348.79 382.31 353.75 374.54 359.77 366.92 366.44 359.88 373.12 352.88 380.47 346.51 388.08 341.21 395.71 336.03 403.63 332.02 411.43 329.62" stroke-dasharray="11 3" transform="rotate(84.84, 400, 400)" opacity="0.70"></path><path d="M407.71 340.35C420.08 337.04 429.43 339.53 434.36 346.04 439.13 352.98 439.52 363.35 434.69 375.05 430.24 386.74 421.96 397.57 412.14 406.04 402.73 415.02 391.34 422.36 379.77 426.14 368.21 430.73 358.57 430.54 352.54 426.21 346.73 421.88 344.86 413.1 348.46 400.93 352.37 388.76 360.97 375.66 371.68 364.41 382.46 353.33 395.33 344.37 407.71 340.35" stroke-dasharray="2 7" transform="rotate(88.88, 400, 400)" opacity="0.95"></path><path d="M403.72 351.07C416.36 349.28 427.23 363.28 423.91 375.82 420.61 384.6 414.3 393.02 406.75 399.78 399.42 406.81 390.63 412.54 381.91 415.41 369.66 418.58 357.03 408.47 359.24 396.13 362.24 387.06 368.72 377.31 376.77 368.96 384.89 360.73 394.53 354.08 403.72 351.07" stroke-dasharray="2 7" transform="rotate(92.92, 400, 400)" opacity="0.95"></path><path d="M399.62 361.8C411.76 358.37 417.74 365.74 413.13 377.49 408.9 389.23 396.36 401.03 384.66 404.69 372.94 409.14 366.21 403.45 370.02 391.46 374.16 379.46 387.47 365.96 399.62 361.8" stroke-dasharray="6 7" transform="rotate(96.96, 400, 400)" opacity="0.51"></path></g></svg>