<svg xmlns="http://www.w3.org/2000/svg" xmlns:svgjs="http://svgjs.dev/svgjs" xmlns:xlink="http://www.w3.org/1999/xlink" version="1.1" viewBox="0 0 1422 800"><defs><linearGradient id="oooscillate-grad" x1="50%" x2="50%" y1="0%" y2="100%"><stop offset="0%" stop-color="hsl(162, 100%, 58%)" stop-opacity="1"/><stop offset="100%" stop-color="hsl(270, 73%, 53%)" stop-opacity="1"/></linearGradient></defs><g fill="none" stroke="url(#oooscillate-grad)" stroke-linecap="round" stroke-width="2"><path d="M 0 572 Q 355.5 -100 711 400 Q 1066.5 900 1422 572" opacity=".3"/><path d="M 0 550 Q 355.5 -100 711 400 Q 1066.5 900 1422 550" opacity=".76"/><path d="M 0 528 Q 355.5 -100 711 400 Q 1066.5 900 1422 528" opacity=".44"/><path d="M 0 506 Q 355.5 -100 711 400 Q 1066.5 900 1422 506" opacity=".66"/><path d="M 0 484 Q 355.5 -100 711 400 Q 1066.5 900 1422 484" opacity=".15"/><path d="M 0 462 Q 355.5 -100 711 400 Q 1066.5 900 1422 462" opacity=".3"/><path d="M 0 440 Q 355.5 -100 711 400 Q 1066.5 900 1422 440" opacity=".82"/><path d="M 0 418 Q 355.5 -100 711 400 Q 1066.5 900 1422 418" opacity=".48"/><path d="M 0 396 Q 355.5 -100 711 400 Q 1066.5 900 1422 396" opacity=".17"/><path d="M 0 374 Q 355.5 -100 711 400 Q 1066.5 900 1422 374" opacity=".57"/><path d="M 0 352 Q 355.5 -100 711 400 Q 1066.5 900 1422 352" opacity=".91"/><path d="M 0 330 Q 355.5 -100 711 400 Q 1066.5 900 1422 330" opacity=".2"/><path d="M 0 308 Q 355.5 -100 711 400 Q 1066.5 900 1422 308" opacity=".19"/><path d="M 0 286 Q 355.5 -100 711 400 Q 1066.5 900 1422 286" opacity=".08"/><path d="M 0 264 Q 355.5 -100 711 400 Q 1066.5 900 1422 264" opacity=".19"/><path d="M 0 242 Q 355.5 -100 711 400 Q 1066.5 900 1422 242" opacity=".54"/><path d="M 0 220 Q 355.5 -100 711 400 Q 1066.5 900 1422 220" opacity=".34"/><path d="M 0 198 Q 355.5 -100 711 400 Q 1066.5 900 1422 198" opacity=".99"/><path d="M 0 176 Q 355.5 -100 711 400 Q 1066.5 900 1422 176" opacity=".87"/><path d="M 0 154 Q 355.5 -100 711 400 Q 1066.5 900 1422 154" opacity=".97"/><path d="M 0 132 Q 355.5 -100 711 400 Q 1066.5 900 1422 132" opacity=".29"/><path d="M 0 110 Q 355.5 -100 711 400 Q 1066.5 900 1422 110" opacity=".45"/><path d="M 0 88 Q 355.5 -100 711 400 Q 1066.5 900 1422 88" opacity=".66"/><path d="M 0 66 Q 355.5 -100 711 400 Q 1066.5 900 1422 66" opacity=".48"/><path d="M 0 44 Q 355.5 -100 711 400 Q 1066.5 900 1422 44" opacity=".73"/></g></svg>